<svg width="18.000000" height="18.000000" viewBox="0 0 18 18" fill="none" xmlns="http://www.w3.org/2000/svg" xmlns:xlink="http://www.w3.org/1999/xlink">
	<desc>
			Created with Pixso.
	</desc>
	<defs>
		<clipPath id="clip11_99">
			<rect id="close 1" width="18.000000" height="18.000000" fill="white" fill-opacity="0"/>
		</clipPath>
	</defs>
	<rect id="close 1" width="18.000000" height="18.000000" fill="#FFFFFF" fill-opacity="0"/>
	<g clip-path="url(#clip11_99)">
		<path id="Vector" d="M17.25 8.25C16.83 8.25 16.5 8.58 16.5 9C16.5 13.13 13.13 16.5 9 16.5C4.86 16.5 1.5 13.13 1.5 9C1.5 4.86 4.86 1.5 9 1.5C11.01 1.5 12.9 2.28 14.32 3.71C14.61 4 15.08 4.01 15.38 3.71C15.67 3.42 15.67 2.95 15.38 2.65C13.68 0.94 11.41 0 9 0C4.03 0 0 4.03 0 9C0 13.96 4.03 18 9 18C13.96 18 18 13.96 18 9C18 8.58 17.66 8.25 17.25 8.25Z" fill="#4793FF" fill-opacity="1.000000" fill-rule="nonzero"/>
		<path id="Vector" d="M10.06 9L11.78 7.28C12.07 6.98 12.07 6.51 11.78 6.21C11.48 5.92 11.01 5.92 10.71 6.21L9 7.93L7.28 6.21C6.98 5.92 6.51 5.92 6.21 6.21C5.92 6.51 5.92 6.98 6.21 7.28L7.93 9L6.21 10.71C5.92 11.01 5.92 11.48 6.21 11.78C6.36 11.92 6.55 12 6.75 12C6.94 12 7.13 11.92 7.28 11.78L9 10.06L10.71 11.78C10.86 11.92 11.05 12 11.25 12C11.44 12 11.63 11.92 11.78 11.78C12.07 11.48 12.07 11.01 11.78 10.71L10.06 9Z" fill="#4793FF" fill-opacity="1.000000" fill-rule="nonzero"/>
	</g>
</svg>
