<svg width="19.000000" height="19.000000" viewBox="0 0 19 19" fill="none" xmlns="http://www.w3.org/2000/svg" xmlns:xlink="http://www.w3.org/1999/xlink">
	<desc>
			Created with Pixso.
	</desc>
	<defs/>
	<path id="Vector" d="M15.47 13.28C15.04 13.28 14.62 13.17 14.24 12.96C13.86 12.76 13.55 12.46 13.31 12.1C13.08 12.46 12.77 12.76 12.39 12.96C12.01 13.17 11.59 13.28 11.16 13.28C10.73 13.28 10.31 13.17 9.93 12.96C9.56 12.76 9.24 12.46 9.01 12.1C8.78 12.46 8.46 12.76 8.08 12.96C7.71 13.17 7.29 13.28 6.86 13.28C6.43 13.28 6.01 13.17 5.63 12.96C5.25 12.76 4.93 12.46 4.7 12.1C4.41 12.56 3.97 12.92 3.45 13.11C2.93 13.31 2.36 13.33 1.83 13.17C1.3 13.02 0.84 12.7 0.51 12.25C0.17 11.81 0 11.27 0 10.72C0 10.61 0.04 10.51 0.11 10.44C0.19 10.36 0.29 10.32 0.4 10.32C0.5 10.32 0.61 10.36 0.68 10.44C0.76 10.51 0.8 10.61 0.8 10.72C0.8 10.95 0.84 11.18 0.93 11.4C1.01 11.61 1.14 11.81 1.31 11.97C1.47 12.14 1.66 12.27 1.88 12.36C2.09 12.45 2.32 12.49 2.55 12.49C2.78 12.49 3.01 12.45 3.23 12.36C3.44 12.27 3.63 12.14 3.8 11.97C3.96 11.81 4.09 11.61 4.17 11.4C4.26 11.18 4.3 10.95 4.3 10.72C4.3 10.61 4.34 10.51 4.42 10.44C4.49 10.36 4.6 10.32 4.7 10.32C4.81 10.32 4.91 10.36 4.99 10.44C5.06 10.51 5.11 10.61 5.11 10.72C5.1 10.95 5.15 11.18 5.23 11.4C5.32 11.61 5.45 11.81 5.61 11.97C5.77 12.14 5.97 12.27 6.18 12.36C6.4 12.45 6.62 12.49 6.86 12.49C7.09 12.49 7.32 12.45 7.53 12.36C7.74 12.27 7.94 12.14 8.1 11.97C8.26 11.81 8.39 11.61 8.48 11.4C8.57 11.18 8.61 10.95 8.61 10.72C8.61 10.61 8.65 10.51 8.72 10.44C8.8 10.36 8.9 10.32 9.01 10.32C9.12 10.32 9.22 10.36 9.29 10.44C9.37 10.51 9.41 10.61 9.41 10.72C9.41 10.95 9.45 11.18 9.54 11.4C9.63 11.61 9.75 11.81 9.92 11.97C10.08 12.14 10.27 12.27 10.49 12.36C10.7 12.45 10.93 12.49 11.16 12.49C11.39 12.49 11.62 12.45 11.84 12.36C12.05 12.27 12.24 12.14 12.41 11.97C12.57 11.81 12.7 11.61 12.79 11.4C12.87 11.18 12.92 10.95 12.91 10.72C12.91 10.61 12.96 10.51 13.03 10.44C13.11 10.36 13.21 10.32 13.31 10.32C13.42 10.32 13.52 10.36 13.6 10.44C13.67 10.51 13.72 10.61 13.72 10.72C13.71 10.95 13.76 11.18 13.84 11.4C13.93 11.61 14.06 11.81 14.22 11.97C14.39 12.14 14.58 12.27 14.79 12.36C15.01 12.45 15.24 12.49 15.47 12.49C15.7 12.49 15.93 12.45 16.14 12.36C16.36 12.27 16.55 12.14 16.71 11.97C16.88 11.81 17 11.61 17.09 11.4C17.18 11.18 17.22 10.95 17.22 10.72C17.22 10.61 17.26 10.51 17.34 10.44C17.41 10.36 17.51 10.32 17.62 10.32C17.73 10.32 17.83 10.36 17.91 10.44C17.98 10.51 18.02 10.61 18.02 10.72C18.02 11.4 17.75 12.05 17.27 12.53C16.79 13.01 16.15 13.28 15.47 13.28Z" fill="#AFD1FD" fill-opacity="1.000000" fill-rule="nonzero"/>
	<path id="Vector" d="M15.47 18.02C15.04 18.02 14.62 17.91 14.24 17.71C13.86 17.5 13.55 17.2 13.31 16.84C13.08 17.2 12.77 17.5 12.39 17.71C12.01 17.91 11.59 18.02 11.16 18.02C10.73 18.02 10.31 17.91 9.93 17.71C9.56 17.5 9.24 17.2 9.01 16.84C8.78 17.2 8.46 17.5 8.08 17.71C7.71 17.91 7.29 18.02 6.86 18.02C6.43 18.02 6.01 17.91 5.63 17.71C5.25 17.5 4.93 17.2 4.7 16.84C4.41 17.31 3.97 17.67 3.45 17.86C2.93 18.05 2.36 18.08 1.83 17.92C1.3 17.77 0.84 17.44 0.51 17C0.17 16.56 -0.01 16.02 0 15.47C0 15.36 0.04 15.26 0.11 15.18C0.19 15.11 0.29 15.07 0.4 15.07C0.5 15.07 0.61 15.11 0.68 15.18C0.76 15.26 0.8 15.36 0.8 15.47C0.8 15.7 0.84 15.93 0.93 16.14C1.01 16.36 1.14 16.55 1.31 16.72C1.47 16.88 1.66 17.01 1.88 17.1C2.09 17.19 2.32 17.24 2.55 17.24C2.78 17.24 3.01 17.19 3.22 17.1C3.44 17.01 3.63 16.88 3.8 16.72C3.96 16.55 4.09 16.36 4.17 16.14C4.26 15.93 4.3 15.7 4.3 15.47C4.3 15.36 4.34 15.26 4.42 15.18C4.49 15.11 4.6 15.07 4.7 15.07C4.81 15.07 4.91 15.11 4.99 15.18C5.06 15.26 5.11 15.36 5.11 15.47C5.1 15.7 5.15 15.93 5.23 16.14C5.32 16.36 5.45 16.55 5.61 16.72C5.77 16.88 5.97 17.01 6.18 17.1C6.39 17.19 6.62 17.24 6.86 17.24C7.09 17.24 7.32 17.19 7.53 17.1C7.74 17.01 7.94 16.88 8.1 16.72C8.26 16.55 8.39 16.36 8.48 16.14C8.57 15.93 8.61 15.7 8.61 15.47C8.61 15.36 8.65 15.26 8.72 15.18C8.8 15.11 8.9 15.07 9.01 15.07C9.12 15.07 9.22 15.11 9.29 15.18C9.37 15.26 9.41 15.36 9.41 15.47C9.41 15.7 9.45 15.93 9.54 16.14C9.63 16.36 9.75 16.55 9.92 16.72C10.08 16.88 10.27 17.01 10.49 17.1C10.7 17.19 10.93 17.24 11.16 17.24C11.39 17.24 11.62 17.19 11.84 17.1C12.05 17.01 12.24 16.88 12.41 16.72C12.57 16.55 12.7 16.36 12.78 16.14C12.87 15.93 12.91 15.7 12.91 15.47C12.91 15.36 12.95 15.26 13.03 15.18C13.11 15.11 13.21 15.07 13.31 15.07C13.42 15.07 13.52 15.11 13.6 15.18C13.67 15.26 13.72 15.36 13.72 15.47C13.71 15.7 13.76 15.93 13.84 16.14C13.93 16.36 14.06 16.55 14.22 16.72C14.38 16.88 14.58 17.01 14.79 17.1C15.01 17.19 15.24 17.24 15.47 17.24C15.7 17.24 15.93 17.19 16.14 17.1C16.36 17.01 16.55 16.88 16.71 16.72C16.87 16.55 17 16.36 17.09 16.14C17.18 15.93 17.22 15.7 17.22 15.47C17.22 15.36 17.26 15.26 17.34 15.18C17.41 15.11 17.51 15.07 17.62 15.07C17.73 15.07 17.83 15.11 17.9 15.18C17.98 15.26 18.02 15.36 18.02 15.47C18.02 16.15 17.75 16.79 17.27 17.27C16.79 17.75 16.15 18.02 15.47 18.02Z" fill="#9AA1EB" fill-opacity="1.000000" fill-rule="nonzero"/>
	<path id="Vector" d="M10.81 1.63L9.29 0.11C9.26 0.08 9.21 0.05 9.16 0.03C9.11 0.01 9.06 0 9.01 0C8.96 0 8.9 0.01 8.85 0.03C8.81 0.05 8.76 0.08 8.72 0.11L7.21 1.63C7.13 1.71 7.09 1.81 7.09 1.92C7.09 2.02 7.13 2.12 7.21 2.2C7.28 2.28 7.38 2.32 7.49 2.32C7.6 2.32 7.7 2.28 7.77 2.2L8.61 1.37L8.61 5.38C8.61 5.48 8.65 5.59 8.72 5.66C8.8 5.74 8.9 5.78 9.01 5.78C9.12 5.78 9.22 5.74 9.29 5.66C9.37 5.59 9.41 5.48 9.41 5.38L9.41 1.37L10.24 2.2C10.28 2.24 10.32 2.27 10.37 2.29C10.42 2.31 10.47 2.32 10.53 2.32C10.58 2.32 10.63 2.31 10.68 2.29C10.73 2.27 10.77 2.24 10.81 2.2C10.85 2.16 10.88 2.12 10.9 2.07C10.92 2.02 10.93 1.97 10.93 1.92C10.93 1.86 10.92 1.81 10.9 1.76C10.88 1.71 10.85 1.67 10.81 1.63Z" fill="#BFFDFF" fill-opacity="1.000000" fill-rule="nonzero"/>
	<path id="Vector" d="M2.91 2.86C2.87 2.83 2.83 2.8 2.78 2.78C2.73 2.76 2.68 2.75 2.62 2.75C2.57 2.75 2.52 2.76 2.47 2.78C2.42 2.8 2.38 2.83 2.34 2.86L0.82 4.38C0.74 4.46 0.7 4.56 0.7 4.67C0.7 4.77 0.74 4.88 0.82 4.95C0.9 5.03 1 5.07 1.1 5.07C1.21 5.07 1.31 5.03 1.39 4.95L2.22 4.12L2.22 8.13C2.22 8.24 2.26 8.34 2.34 8.41C2.41 8.49 2.52 8.53 2.62 8.53C2.73 8.53 2.83 8.49 2.91 8.41C2.98 8.34 3.03 8.24 3.03 8.13L3.03 4.12L3.86 4.95C3.93 5.02 4.04 5.06 4.14 5.06C4.25 5.06 4.35 5.02 4.42 4.95C4.5 4.87 4.54 4.77 4.54 4.66C4.54 4.56 4.5 4.46 4.43 4.38L2.91 2.86Z" fill="#BFFDFF" fill-opacity="1.000000" fill-rule="nonzero"/>
	<path id="Vector" d="M17.2 4.38L15.68 2.86C15.64 2.83 15.6 2.8 15.55 2.78C15.5 2.76 15.45 2.75 15.39 2.75C15.34 2.75 15.29 2.76 15.24 2.78C15.19 2.8 15.15 2.83 15.11 2.86L13.59 4.38C13.55 4.42 13.52 4.46 13.5 4.51C13.48 4.56 13.47 4.61 13.47 4.67C13.47 4.72 13.48 4.77 13.5 4.82C13.52 4.87 13.55 4.92 13.59 4.96C13.62 4.99 13.67 5.02 13.72 5.04C13.77 5.06 13.82 5.07 13.87 5.07C13.93 5.07 13.98 5.06 14.03 5.04C14.08 5.02 14.12 4.99 14.16 4.95L14.99 4.12L14.99 8.13C14.99 8.24 15.03 8.34 15.11 8.41C15.18 8.49 15.29 8.53 15.39 8.53C15.5 8.53 15.6 8.49 15.68 8.41C15.75 8.34 15.8 8.24 15.8 8.13L15.8 4.12L16.63 4.95C16.7 5.03 16.81 5.07 16.91 5.07C17.02 5.07 17.12 5.03 17.2 4.95C17.27 4.88 17.31 4.77 17.31 4.67C17.31 4.56 17.27 4.46 17.2 4.38Z" fill="#BFFDFF" fill-opacity="1.000000" fill-rule="nonzero"/>
	<path id="Vector" d="M6.84 6.25C6.79 6.25 6.73 6.26 6.69 6.28C6.64 6.3 6.59 6.33 6.55 6.37C6.52 6.41 6.49 6.45 6.47 6.5C6.45 6.55 6.44 6.6 6.44 6.65L6.44 10.04C6.44 10.15 6.48 10.25 6.55 10.33C6.63 10.4 6.73 10.45 6.84 10.45C6.95 10.45 7.05 10.4 7.12 10.33C7.2 10.25 7.24 10.15 7.24 10.04L7.24 6.65C7.24 6.6 7.23 6.55 7.21 6.5C7.19 6.45 7.16 6.41 7.12 6.37C7.09 6.33 7.04 6.3 6.99 6.28C6.94 6.26 6.89 6.25 6.84 6.25Z" fill="#BFFDFF" fill-opacity="1.000000" fill-rule="nonzero"/>
	<path id="Vector" d="M11.18 6.25C11.13 6.25 11.07 6.26 11.02 6.28C10.98 6.3 10.93 6.33 10.89 6.37C10.86 6.41 10.83 6.45 10.81 6.5C10.79 6.55 10.78 6.6 10.78 6.65L10.78 10.04C10.78 10.15 10.82 10.25 10.89 10.33C10.97 10.4 11.07 10.45 11.18 10.45C11.28 10.45 11.39 10.4 11.46 10.33C11.54 10.25 11.58 10.15 11.58 10.04L11.58 6.65C11.58 6.6 11.57 6.55 11.55 6.5C11.53 6.45 11.5 6.41 11.46 6.37C11.43 6.33 11.38 6.3 11.33 6.28C11.28 6.26 11.23 6.25 11.18 6.25Z" fill="#BFFDFF" fill-opacity="1.000000" fill-rule="nonzero"/>
</svg>
