<svg width="65.000000" height="65.000000" viewBox="0 0 65 65" fill="none" xmlns="http://www.w3.org/2000/svg" xmlns:xlink="http://www.w3.org/1999/xlink">
	<desc>
			Created with Pixso.
	</desc>
	<defs>
		<clipPath id="clip2_185">
			<rect id="Header logo" width="65.000000" height="65.000000" fill="white" fill-opacity="0"/>
		</clipPath>
	</defs>
	<rect id="Header logo" width="65.000000" height="65.000000" fill="#FFFFFF" fill-opacity="0"/>
	<g clip-path="url(#clip2_185)">
		<path id="Vector" d="M65 32.5C65 50.44 50.44 65 32.5 65C14.55 65 0 50.44 0 32.5C0 14.55 14.55 0 32.5 0C50.44 0 65 14.55 65 32.5Z" fill="#4793FF" fill-opacity="1.000000" fill-rule="evenodd"/>
		<path id="Vector" d="M65 32.5C65 29.89 64.69 27.36 64.11 24.93L54.34 15.16L53.02 15.72L48.32 11.16C48.32 11.16 46.54 14.07 44.53 12.87L41.38 9.79L41.19 14.28L8.78 46.26L27.06 64.54C28.83 64.84 30.64 65 32.5 65C50.44 65 65 50.44 65 32.5Z" fill="#424FDD" fill-opacity="1.000000" fill-rule="nonzero"/>
		<path id="Vector" d="M58.33 29L59.71 28.12L58.23 27.18C56.64 26.16 56.21 24.03 57.29 22.47L58.28 21.03L56.68 20.76C54.8 20.43 53.58 18.61 53.99 16.75L54.34 15.16L52.63 15.54C50.79 15.94 48.97 14.74 48.63 12.88L48.32 11.16L46.99 12.1C45.43 13.19 43.28 12.77 42.26 11.16L41.38 9.79L40.44 11.26C39.42 12.86 37.28 13.29 35.73 12.21L34.29 11.22L34.01 12.82C33.69 14.7 31.87 15.92 30.01 15.51L28.42 15.16L28.79 16.87C29.2 18.71 27.99 20.53 26.13 20.87L24.42 21.18L25.35 22.51C26.45 24.07 26.02 26.22 24.42 27.24L23.05 28.12L24.52 29.06C26.11 30.08 26.54 32.22 25.47 33.77L24.48 35.21L26.08 35.49C27.95 35.81 29.18 37.63 28.77 39.49L28.42 41.08L30.12 40.7C31.97 40.3 33.78 41.51 34.12 43.36L34.44 45.08L35.77 44.15C37.32 43.05 39.48 43.47 40.5 45.08L41.38 46.45L42.32 44.98C43.34 43.38 45.47 42.95 47.03 44.03L48.46 45.02L48.74 43.42C49.07 41.55 50.89 40.32 52.75 40.73L54.34 41.08L53.96 39.37C53.56 37.53 54.76 35.71 56.62 35.37L58.34 35.06L57.4 33.73C56.31 32.18 56.73 30.02 58.33 29Z" fill="#FDBF2D" fill-opacity="1.000000" fill-rule="nonzero"/>
		<path id="Vector" d="M57.4 33.73L58.34 35.06L56.62 35.37C54.76 35.71 53.56 37.53 53.96 39.37L54.34 41.08L52.75 40.73C50.89 40.32 49.07 41.54 48.74 43.42L48.46 45.02L47.03 44.03C45.47 42.95 43.34 43.38 42.32 44.97L41.38 46.45L41.38 9.79L42.26 11.16C43.28 12.77 45.43 13.19 46.99 12.09L48.32 11.16L48.63 12.88C48.97 14.73 50.79 15.94 52.63 15.54L54.34 15.16L53.99 16.75C53.58 18.61 54.8 20.43 56.68 20.75L58.28 21.03L57.29 22.47C56.21 24.02 56.64 26.16 58.23 27.18L59.7 28.12L58.33 29C56.73 30.02 56.31 32.17 57.4 33.73Z" fill="#FD9827" fill-opacity="1.000000" fill-rule="nonzero"/>
		<path id="Vector" d="M54.22 28.12C54.22 35.21 48.47 40.97 41.38 40.97C34.28 40.97 28.53 35.21 28.53 28.12C28.53 21.02 34.28 15.27 41.38 15.27C48.47 15.27 54.22 21.02 54.22 28.12Z" fill="#FFE05F" fill-opacity="1.000000" fill-rule="evenodd"/>
		<path id="Vector" d="M54.22 28.12C54.22 35.21 48.47 40.97 41.38 40.97L41.38 15.27C48.47 15.27 54.22 21.02 54.22 28.12Z" fill="#F9CB0D" fill-opacity="1.000000" fill-rule="nonzero"/>
		<path id="Vector" d="M42.52 32.24C42.19 32.24 41.86 32.26 41.54 32.3C41.57 31.94 41.59 31.57 41.59 31.2C41.59 24.38 36.06 18.86 29.24 18.86C23.57 18.86 18.78 22.69 17.34 27.91C16.88 27.85 16.42 27.82 15.94 27.82C10.08 27.82 5.33 32.57 5.33 38.43C5.33 44.29 10.08 49.04 15.94 49.04L42.52 49.04C47.16 49.04 50.93 45.28 50.93 40.64C50.93 36 47.16 32.24 42.52 32.24Z" fill="#FFFFFF" fill-opacity="1.000000" fill-rule="nonzero"/>
		<path id="Vector" d="M50.93 40.64C50.93 45.28 47.16 49.04 42.52 49.04L28.13 49.04L28.13 18.9C28.5 18.87 28.87 18.85 29.24 18.85C36.06 18.85 41.59 24.38 41.59 31.2C41.59 31.57 41.57 31.93 41.54 32.29C41.86 32.26 42.19 32.24 42.52 32.24C47.16 32.24 50.93 36 50.93 40.64Z" fill="#DAEFEC" fill-opacity="1.000000" fill-rule="nonzero"/>
	</g>
</svg>
