<svg width="48.000000" height="48.000000" viewBox="0 0 48 48" fill="none" xmlns="http://www.w3.org/2000/svg" xmlns:xlink="http://www.w3.org/1999/xlink">
	<desc>
			Created with Pixso.
	</desc>
	<defs>
		<clipPath id="clip2_550">
			<rect id="mainly_cloudy" width="48.000000" height="48.000000" fill="white" fill-opacity="0"/>
		</clipPath>
		<linearGradient id="paint_linear_2_553_0" x1="22.000002" y1="16.000000" x2="22.000002" y2="38.000000" gradientUnits="userSpaceOnUse">
			<stop stop-color="#9FC7FF"/>
			<stop offset="1.000000" stop-color="#9BC1F5"/>
		</linearGradient>
		<radialGradient id="paint_radial_2_554_0" cx="0.000000" cy="0.000000" r="1.000000" gradientUnits="userSpaceOnUse" gradientTransform="translate(17.9439 -22.6966) rotate(-90) scale(20.9574 6.69705)">
			<stop stop-color="#486DA8" stop-opacity="0.400000"/>
			<stop offset="1.000000" stop-color="#486DA8" stop-opacity="0.000000"/>
		</radialGradient>
	</defs>
	<rect id="mainly_cloudy" width="48.000000" height="48.000000" fill="#FFFFFF" fill-opacity="0"/>
	<g clip-path="url(#clip2_550)">
		<g opacity="0.320000">
			<path id="Vector" d="M38 28C41.31 28 44 25.31 44 22C44 18.68 41.31 16 38 16L37.93 16C37.97 15.67 38 15.33 38 15C38 10.58 34.41 7 30 7C26.5 7 23.52 9.24 22.44 12.37C21.67 12.13 20.85 12 20 12C15.58 12 12 15.58 12 20C12 24.41 15.58 28 20 28C20.69 28 21.36 27.91 22 27.74L22 28L38 28Z" fill="#73A5E6" fill-opacity="1.000000" fill-rule="nonzero"/>
		</g>
		<path id="Vector" d="M12 38C7.58 38 4 34.41 4 30C4 25.58 7.58 22 12 22C12.83 22 13.63 22.12 14.39 22.36C15.51 18.68 18.94 16 23 16C27.97 16 32 20.03 32 25C32 25.47 31.96 25.93 31.89 26.38C32.55 26.13 33.25 26 34 26C37.31 26 40 28.68 40 32C40 35.31 37.31 38 34 38L12 38Z" fill="url(#paint_linear_2_553_0)" fill-opacity="1.000000" fill-rule="nonzero"/>
		<path id="Vector" d="M14 25C14 29.97 18.03 34 23 34C27.5 34 31.23 30.69 31.89 26.38C32.55 26.13 33.25 26 34 26C37.31 26 40 28.68 40 32C40 35.31 37.31 38 34 38L12 38C7.58 38 4 34.41 4 30C4 25.58 7.58 22 12 22C12.83 22 13.63 22.12 14.39 22.36C14.13 23.19 14 24.08 14 25Z" fill="url(#paint_radial_2_554_0)" fill-opacity="1.000000" fill-rule="nonzero"/>
	</g>
</svg>
