<svg width="19.000000" height="19.000000" viewBox="0 0 19 19" fill="none" xmlns="http://www.w3.org/2000/svg" xmlns:xlink="http://www.w3.org/1999/xlink">
	<desc>
			Created with Pixso.
	</desc>
	<defs>
		<clipPath id="clip2_124">
			<rect id="pressure" width="19.000000" height="19.000000" fill="white" fill-opacity="0"/>
		</clipPath>
		<linearGradient id="paint_linear_2_125_0" x1="3.908057" y1="16.382957" x2="15.072887" y2="5.222177" gradientUnits="userSpaceOnUse">
			<stop stop-color="#34CDFA"/>
			<stop offset="1.000000" stop-color="#E8D9F1"/>
		</linearGradient>
	</defs>
	<rect id="pressure" width="19.000000" height="19.000000" fill="#FFFFFF" fill-opacity="0"/>
	<g clip-path="url(#clip2_124)">
		<path id="Vector" d="M10.13 0.28C9.81 -0.04 9.34 -0.12 8.94 0.2C8.94 0.2 8.86 0.2 8.86 0.28C8.23 1.07 2.36 8.21 2.36 11.86C2.36 15.82 5.53 19 9.5 19C13.46 19 16.63 15.82 16.63 11.86C16.63 8.21 10.76 1.07 10.13 0.28Z" fill="url(#paint_linear_2_125_0)" fill-opacity="1.000000" fill-rule="nonzero"/>
		<path id="Vector" d="M12.47 9.21L7.7 13.98L6.58 12.86L11.35 8.09L12.47 9.21Z" fill="#FFFFFF" fill-opacity="1.000000" fill-rule="evenodd"/>
		<path id="Vector" d="M7.91 9.48C7.91 9.92 7.55 10.27 7.12 10.27C6.68 10.27 6.32 9.92 6.32 9.48C6.32 9.04 6.68 8.68 7.12 8.68C7.55 8.68 7.91 9.04 7.91 9.48Z" fill="#FFFFFF" fill-opacity="1.000000" fill-rule="evenodd"/>
		<path id="Vector" d="M12.67 12.65C12.67 13.09 12.31 13.44 11.87 13.44C11.44 13.44 11.08 13.09 11.08 12.65C11.08 12.21 11.44 11.86 11.87 11.86C12.31 11.86 12.67 12.21 12.67 12.65Z" fill="#FFFFFF" fill-opacity="1.000000" fill-rule="evenodd"/>
	</g>
</svg>
