<svg width="48.000000" height="48.000000" viewBox="0 0 48 48" fill="none" xmlns="http://www.w3.org/2000/svg" xmlns:xlink="http://www.w3.org/1999/xlink">
	<desc>
			Created with Pixso.
	</desc>
	<defs>
		<linearGradient id="paint_linear_2_548_0" x1="24.009182" y1="12.510010" x2="24.009182" y2="35.195160" gradientUnits="userSpaceOnUse">
			<stop stop-color="#FFC227"/>
			<stop offset="1.000000" stop-color="#FFB300"/>
		</linearGradient>
	</defs>
	<path id="Vector" d="M35.5 24C35.5 30.35 30.35 35.5 24 35.5C17.65 35.5 12.51 30.35 12.51 24C12.51 17.65 17.65 12.51 24 12.51C30.35 12.51 35.5 17.65 35.5 24Z" fill="url(#paint_linear_2_548_0)" fill-opacity="1.000000" fill-rule="evenodd"/>
	<path id="Vector" d="M34.81 2.4L32.11 8.92C31.23 11.04 28.04 9.72 28.92 7.6L31.62 1.08C32.5 -1.05 35.69 0.27 34.81 2.4ZM19.07 40.39L16.37 46.92C15.49 49.04 12.3 47.72 13.18 45.6L15.88 39.07C16.76 36.95 19.95 38.27 19.07 40.39ZM46.92 16.37L40.39 19.07C38.27 19.95 36.95 16.77 39.07 15.88L45.6 13.18C47.72 12.3 49.04 15.49 46.92 16.37ZM8.92 32.11L2.39 34.81C0.27 35.69 -1.05 32.51 1.07 31.62L7.6 28.92C9.72 28.04 11.04 31.23 8.92 32.11ZM45.6 34.81L39.07 32.11C36.95 31.23 38.27 28.05 40.39 28.93L46.92 31.63C49.04 32.51 47.72 35.69 45.6 34.81ZM7.6 19.07L1.07 16.37C-1.05 15.49 0.27 12.3 2.39 13.19L8.92 15.89C11.04 16.77 9.72 19.95 7.6 19.07ZM16.36 1.07L19.07 7.6C19.95 9.72 16.76 11.04 15.88 8.92L13.18 2.39C12.3 0.27 15.48 -1.05 16.36 1.07ZM32.1 39.07L34.81 45.59C35.69 47.72 32.5 49.04 31.62 46.91L28.92 40.39C28.04 38.27 31.22 36.95 32.1 39.07Z" fill="#FFB300" fill-opacity="1.000000" fill-rule="nonzero"/>
</svg>
