<svg width="25.000000" height="25.000000" viewBox="0 0 25 25" fill="none" xmlns="http://www.w3.org/2000/svg" xmlns:xlink="http://www.w3.org/1999/xlink">
	<desc>
			Created with Pixso.
	</desc>
	<defs>
		<clipPath id="clip2_133">
			<rect id="temp" width="25.000000" height="25.000000" fill="white" fill-opacity="0"/>
		</clipPath>
	</defs>
	<rect id="temp" width="25.000000" height="25.000000" fill="#FFFFFF" fill-opacity="0"/>
	<g clip-path="url(#clip2_133)">
		<path id="Vector" d="M15.4 2.98L19.1 2.98C19.3 2.98 19.47 2.81 19.47 2.61C19.47 2.41 19.3 2.24 19.1 2.24L15.4 2.24C15.2 2.24 15.03 2.41 15.03 2.61C15.03 2.81 15.2 2.98 15.4 2.98Z" fill="#4F667A" fill-opacity="1.000000" fill-rule="nonzero"/>
		<path id="Vector" d="M15.4 4.67L17.25 4.67C17.45 4.67 17.62 4.5 17.62 4.3C17.62 4.1 17.45 3.94 17.25 3.94L15.4 3.94C15.2 3.94 15.03 4.1 15.03 4.3C15.03 4.5 15.2 4.67 15.4 4.67Z" fill="#4F667A" fill-opacity="1.000000" fill-rule="nonzero"/>
		<path id="Vector" d="M19.1 5.64L15.4 5.64C15.2 5.64 15.04 5.81 15.04 6.01C15.04 6.21 15.2 6.38 15.4 6.38L19.1 6.38C19.3 6.38 19.47 6.21 19.47 6.01C19.47 5.81 19.3 5.64 19.1 5.64Z" fill="#4F667A" fill-opacity="1.000000" fill-rule="nonzero"/>
		<path id="Vector" d="M15.4 8.07L17.25 8.07C17.45 8.07 17.62 7.9 17.62 7.7C17.62 7.5 17.45 7.34 17.25 7.34L15.4 7.34C15.2 7.34 15.03 7.5 15.03 7.7C15.03 7.9 15.2 8.07 15.4 8.07Z" fill="#4F667A" fill-opacity="1.000000" fill-rule="nonzero"/>
		<path id="Vector" d="M19.1 9.02L15.4 9.02C15.2 9.02 15.04 9.18 15.04 9.39C15.04 9.59 15.2 9.75 15.4 9.75L19.1 9.75C19.3 9.75 19.47 9.59 19.47 9.39C19.47 9.18 19.3 9.02 19.1 9.02Z" fill="#4F667A" fill-opacity="1.000000" fill-rule="nonzero"/>
		<path id="Vector" d="M15.4 11.44L17.25 11.44C17.45 11.44 17.62 11.28 17.62 11.08C17.62 10.87 17.45 10.71 17.25 10.71L15.4 10.71C15.2 10.71 15.03 10.87 15.03 11.08C15.03 11.28 15.2 11.44 15.4 11.44Z" fill="#4F667A" fill-opacity="1.000000" fill-rule="nonzero"/>
		<path id="Vector" d="M19.1 12.43L15.4 12.43C15.2 12.43 15.04 12.59 15.04 12.79C15.04 12.99 15.2 13.16 15.4 13.16L19.1 13.16C19.3 13.16 19.47 12.99 19.47 12.79C19.47 12.59 19.3 12.43 19.1 12.43Z" fill="#4F667A" fill-opacity="1.000000" fill-rule="nonzero"/>
		<path id="Vector" d="M17.25 14.12L15.4 14.12C15.2 14.12 15.03 14.28 15.03 14.48C15.03 14.69 15.2 14.85 15.4 14.85L17.25 14.85C17.45 14.85 17.62 14.69 17.62 14.48C17.62 14.28 17.45 14.12 17.25 14.12Z" fill="#4F667A" fill-opacity="1.000000" fill-rule="nonzero"/>
		<path id="Vector" d="M15.95 19.78C15.95 21.19 15.4 22.51 14.4 23.49C13.41 24.46 12.12 25 10.74 25C10.71 25 10.69 25 10.66 24.99C10.44 24.99 10.22 24.97 10.01 24.94C8.91 24.79 7.88 24.28 7.07 23.48C6.11 22.53 5.56 21.26 5.52 19.91C5.48 18.08 6.4 16.37 7.93 15.39L7.93 2.8C7.93 1.51 8.81 0.41 10 0.09C10.24 0.03 10.48 0 10.74 0C12.28 0 13.54 1.25 13.54 2.8L13.54 15.39C15.03 16.34 15.95 18.01 15.95 19.78Z" fill="#E9F5FF" fill-opacity="1.000000" fill-rule="nonzero"/>
		<path id="Vector" d="M15.95 19.78C15.95 21.19 15.4 22.51 14.4 23.49C13.41 24.46 12.12 25 10.74 25C9.82 25 9.27 25 9.27 25C9.52 25 9.77 24.98 10.01 24.94C11.11 24.79 12.13 24.29 12.93 23.49C13.93 22.51 14.48 21.19 14.48 19.78C14.48 18.01 13.57 17.82 12.08 16.86L12.08 2.8C12.08 1.51 11.2 0.41 10 0.09C10.24 0.03 10.48 0 10.74 0C12.28 0 13.54 1.25 13.54 2.8L13.54 15.39C15.03 16.34 15.95 18.01 15.95 19.78Z" fill="#CDEAF7" fill-opacity="1.000000" fill-rule="nonzero"/>
		<path id="Vector" d="M14.48 19.79C14.48 20.8 14.09 21.75 13.37 22.46C12.66 23.16 11.73 23.54 10.73 23.54C10.72 23.54 10.7 23.54 10.68 23.54C10.5 23.53 10.31 23.52 10.13 23.49C9.37 23.36 8.66 23 8.1 22.45C7.41 21.76 7.01 20.85 6.99 19.88C6.96 18.52 7.67 17.24 8.85 16.55C9.18 16.35 9.39 15.99 9.39 15.6L9.39 2.81C9.39 2.29 9.69 1.84 10.13 1.61C10.31 1.52 10.52 1.47 10.74 1.47C11.48 1.47 12.08 2.07 12.08 2.81L12.08 15.6C12.08 15.99 12.29 16.35 12.62 16.55C13.77 17.22 14.48 18.46 14.48 19.79Z" fill="#FF6E6E" fill-opacity="1.000000" fill-rule="nonzero"/>
		<path id="Vector" d="M14.48 19.79C14.48 20.8 14.09 21.75 13.37 22.46C12.66 23.16 11.73 23.54 10.73 23.54C10.72 23.54 10.7 23.54 10.68 23.54C10.5 23.53 10.31 23.52 10.13 23.49C10.89 23.36 11.59 23.01 12.15 22.46C12.87 21.75 13.26 20.8 13.26 19.79C13.26 18.46 12.55 17.22 11.4 16.55C11.07 16.35 10.86 15.99 10.86 15.6L10.86 2.81C10.86 2.29 10.56 1.84 10.13 1.61C10.31 1.52 10.52 1.47 10.74 1.47C11.48 1.47 12.08 2.07 12.08 2.81L12.08 15.6C12.08 15.99 12.29 16.35 12.62 16.55C13.77 17.22 14.48 18.46 14.48 19.79Z" fill="#F44E92" fill-opacity="1.000000" fill-rule="nonzero"/>
		<path id="Vector" d="M12.08 2.81L12.08 6.01L9.39 6.01L9.39 2.81C9.39 2.29 9.69 1.84 10.13 1.61C10.31 1.52 10.52 1.47 10.74 1.47C11.48 1.47 12.08 2.07 12.08 2.81Z" fill="#4F667A" fill-opacity="1.000000" fill-rule="nonzero"/>
		<path id="Vector" d="M12.08 2.81L12.08 6.01L10.86 6.01L10.86 2.81C10.86 2.29 10.56 1.84 10.13 1.61C10.31 1.52 10.52 1.47 10.74 1.47C11.48 1.47 12.08 2.07 12.08 2.81Z" fill="#3A5366" fill-opacity="1.000000" fill-rule="nonzero"/>
	</g>
</svg>
