<svg width="20.000000" height="20.000000" viewBox="0 0 20 20" fill="none" xmlns="http://www.w3.org/2000/svg" xmlns:xlink="http://www.w3.org/1999/xlink">
	<desc>
			Created with Pixso.
	</desc>
	<defs>
		<clipPath id="clip2_169">
			<rect id="wind" width="20.000000" height="20.000000" fill="white" fill-opacity="0"/>
		</clipPath>
	</defs>
	<rect id="wind" width="20.000000" height="20.000000" fill="#FFFFFF" fill-opacity="0"/>
	<g clip-path="url(#clip2_169)">
		<path id="Vector" d="M16.08 2.6C13.92 2.6 12.17 4.36 12.17 6.52C12.17 6.76 12.36 6.95 12.6 6.95C12.84 6.95 13.04 6.76 13.04 6.52C13.04 4.84 14.4 3.47 16.08 3.47C17.76 3.47 19.13 4.84 19.13 6.52C19.13 8.2 17.76 9.56 16.08 9.56L0.43 9.56C0.19 9.56 0 9.76 0 10C0 10.24 0.19 10.43 0.43 10.43L16.08 10.43C18.24 10.43 20 8.67 20 6.52C20 4.36 18.24 2.6 16.08 2.6Z" fill="#007AFF" fill-opacity="1.000000" fill-rule="nonzero"/>
		<path id="Vector" d="M0.43 7.82L7.82 7.82C9.5 7.82 10.86 6.46 10.86 4.78C10.86 3.1 9.5 1.73 7.82 1.73C6.14 1.73 4.78 3.1 4.78 4.78C4.78 5.02 4.97 5.21 5.21 5.21C5.45 5.21 5.65 5.02 5.65 4.78C5.65 3.58 6.62 2.6 7.82 2.6C9.02 2.6 10 3.58 10 4.78C10 5.98 9.02 6.95 7.82 6.95L0.43 6.95C0.19 6.95 0 7.15 0 7.39C0 7.63 0.19 7.82 0.43 7.82Z" fill="#007AFF" fill-opacity="1.000000" fill-rule="nonzero"/>
		<path id="Vector" d="M15.21 17.39C14.01 17.39 13.04 16.41 13.04 15.21C13.04 14.97 12.84 14.78 12.6 14.78C12.36 14.78 12.17 14.97 12.17 15.21C12.17 16.89 13.53 18.26 15.21 18.26C16.89 18.26 18.26 16.89 18.26 15.21C18.26 13.53 16.89 12.17 15.21 12.17L0.43 12.17C0.19 12.17 0 12.36 0 12.6C0 12.84 0.19 13.04 0.43 13.04L15.21 13.04C16.41 13.04 17.39 14.01 17.39 15.21C17.39 16.41 16.41 17.39 15.21 17.39Z" fill="#007AFF" fill-opacity="1.000000" fill-rule="nonzero"/>
	</g>
</svg>
